<svg id="Layer_1" data-name="Layer 1" xmlns="http://www.w3.org/2000/svg" viewBox="0 0 84.2 84.2"><defs><style>.cls-1{fill:none;stroke-width:2px;}.cls-1,.cls-2{stroke:#000;stroke-miterlimit:10;}.cls-2{fill:#fff;}</style></defs><title>camera_blk</title><circle class="cls-1" cx="42.1" cy="42.1" r="41.1"/><path class="cls-2" d="M22.9,62.2c0,.2-.2.2-.3.2a6.77,6.77,0,0,1-4.9-2.7,8.63,8.63,0,0,1-1.6-4.1,19.22,19.22,0,0,1,0-2.4v-23a7.13,7.13,0,0,1,4.1-6.1,8,8,0,0,1,3.4-.7h4.5c.3,0,.4-.1.5-.4a12.88,12.88,0,0,1,2.6-4.9,6.59,6.59,0,0,1,5.2-2.4H48.3a7,7,0,0,1,1.4.3,8.58,8.58,0,0,1,4.4,4.2c.5.9.8,1.8,1.2,2.7.1.2.2.3.4.3h4.8A6.87,6.87,0,0,1,66.1,26a7.51,7.51,0,0,1,1.6,4.8V54.9a7.27,7.27,0,0,1-6.6,7.2c-1.2.1-2.5,0-3.7,0H23C23.1,62.4,22.9,62.4,22.9,62.2Zm19-3.1H61a5,5,0,0,0,1.2-.2,4.13,4.13,0,0,0,2.4-3.8V31a4.06,4.06,0,0,0-.4-1.9,3.71,3.71,0,0,0-3.6-2.3H54.3a1.81,1.81,0,0,1-1.8-1.4,23.07,23.07,0,0,0-1-2.8,6.09,6.09,0,0,0-2.5-3,2,2,0,0,0-1.3-.4H36.4a3.49,3.49,0,0,0-2.2.8,5.33,5.33,0,0,0-1.6,2.3c-.4,1-.8,2.1-1.1,3.1a1.67,1.67,0,0,1-1.8,1.4c-1.7-.1-3.3,0-5,0a16.2,16.2,0,0,0-2.2.1,3.82,3.82,0,0,0-3.2,3.6V54.8a4.75,4.75,0,0,0,.6,2.4,3.38,3.38,0,0,0,3.3,2h4.5C32.5,59.1,37.2,59.1,41.9,59.1Z"/><path class="cls-2" d="M58.7,32.2H56.6a1.3,1.3,0,0,1,0-2.6h4.3a1.3,1.3,0,0,1,0,2.6A16.13,16.13,0,0,1,58.7,32.2Z"/><path class="cls-2" d="M60.9,29.7H56.6a1.3,1.3,0,0,0,0,2.6h4.2A1.18,1.18,0,0,0,62,31,1.17,1.17,0,0,0,60.9,29.7Z"/><path class="cls-2" d="M42,31.8a11.05,11.05,0,1,0-.1,22.1A11.05,11.05,0,0,0,42,31.8Zm.1,18.8a7.77,7.77,0,0,1-7.9-7.8A7.88,7.88,0,0,1,42,35a7.79,7.79,0,0,1,7.7,7.8A7.71,7.71,0,0,1,42.1,50.6Z"/></svg>