<?xml version="1.0" encoding="utf-8"?>
<!-- Generator: Adobe Illustrator 18.1.0, SVG Export Plug-In . SVG Version: 6.00 Build 0)  -->
<svg version="1.1" xmlns="http://www.w3.org/2000/svg" xmlns:xlink="http://www.w3.org/1999/xlink" x="0px" y="0px"
	 viewBox="0 0 612 792" enable-background="new 0 0 612 792" xml:space="preserve">
<g id="Layer_2">
</g>
<g id="Layer_1">
	<g>
		<circle fill="none" stroke="#FFFFFF" stroke-width="2" stroke-miterlimit="10" cx="306" cy="395.6" r="41.1"/>
		<g>
			<path fill="#FFFFFF" d="M286.8,415.7c0,0.2-0.2,0.2-0.3,0.2c-2-0.2-3.7-1.1-4.9-2.7c-0.9-1.2-1.4-2.6-1.6-4.1
				c-0.1-0.8,0-1.6,0-2.4c0-7.7,0-15.3,0-23c0.3-2.8,1.6-4.9,4.1-6.1c1.1-0.5,2.2-0.7,3.4-0.7c1.5,0,3,0,4.5,0
				c0.3,0,0.4-0.1,0.5-0.4c0.6-1.8,1.3-3.5,2.6-4.9c1.4-1.6,3.1-2.4,5.2-2.4c4,0,8,0,11.9,0c0.5,0,0.9,0.2,1.4,0.3
				c2,0.8,3.4,2.3,4.4,4.2c0.5,0.9,0.8,1.8,1.2,2.7c0.1,0.2,0.2,0.3,0.4,0.3c1.6,0,3.2,0,4.8,0c2.3,0,4.2,1,5.6,2.8
				c1.1,1.4,1.6,3,1.6,4.8c0,8,0,16.1,0,24.1c0,3.7-2.9,6.9-6.6,7.2c-1.2,0.1-2.5,0-3.7,0c-10,0-19.9,0-29.9,0c-1.5,0-3,0-4.5,0
				C287,415.9,286.8,415.9,286.8,415.7z M305.8,412.6C305.8,412.6,305.8,412.6,305.8,412.6c2.2,0,4.3,0,6.5,0c4.2,0,8.4,0,12.6,0
				c0.4,0,0.8-0.1,1.2-0.2c1.4-0.5,2.4-2.2,2.4-3.8c0-8,0-16.1,0-24.1c0-0.7-0.1-1.3-0.4-1.9c-0.7-1.5-1.9-2.3-3.6-2.3
				c-2.1,0-4.2,0-6.3,0c-0.9,0-1.5-0.5-1.8-1.4c-0.3-1-0.6-1.9-1-2.8c-0.5-1.2-1.3-2.3-2.5-3c-0.4-0.3-0.8-0.4-1.3-0.4
				c-3.8,0-7.6,0-11.3,0c-0.8,0-1.6,0.3-2.2,0.8c-0.7,0.6-1.3,1.4-1.6,2.3c-0.4,1-0.8,2.1-1.1,3.1c-0.2,0.8-0.8,1.5-1.8,1.4
				c-1.7-0.1-3.3,0-5,0c-0.7,0-1.5,0-2.2,0.1c-1.8,0.3-3.2,1.9-3.2,3.6c0,3.3,0,6.7,0,10c0,4.8,0,9.5,0,14.3c0,0.9,0.2,1.7,0.6,2.4
				c0.7,1.3,1.8,2.1,3.3,2c1.5,0,3,0,4.5,0C296.4,412.6,301.1,412.6,305.8,412.6z"/>
			<path fill="#FFFFFF" d="M322.6,385.7c-0.7,0-1.4,0-2.1,0c-0.7,0-1.2-0.5-1.2-1.3c0-0.8,0.5-1.3,1.2-1.3c1.4,0,2.9,0,4.3,0
				c0.7,0,1.2,0.6,1.2,1.3c0,0.7-0.5,1.3-1.2,1.3C324,385.8,323.3,385.7,322.6,385.7z"/>
			<g>
				<path fill="#FFFFFF" d="M324.8,383.2c-1.4,0-2.9,0-4.3,0c-0.7,0-1.2,0.5-1.2,1.3c0,0.8,0.5,1.3,1.2,1.3c0.7,0,1.4,0,2.1,0
					c0.7,0,1.4,0,2.1,0c0.7,0,1.2-0.5,1.2-1.3C325.9,383.7,325.4,383.2,324.8,383.2z"/>
				<path fill="#FFFFFF" d="M305.9,385.3c-6-0.1-11,4.9-11.1,11c-0.1,6.1,4.9,11,11,11.1c6,0.1,11-4.9,11-10.9
					C317,390.3,312.1,385.4,305.9,385.3z M306,404.1c-4.4,0-7.9-3.4-7.9-7.8c0-4.3,3.5-7.7,7.8-7.8c4.2,0,7.7,3.5,7.7,7.8
					C313.6,400.6,310.2,404.1,306,404.1z"/>
			</g>
		</g>
	</g>
</g>
</svg>
