<?xml version="1.0" encoding="utf-8"?>
<!-- Generator: Adobe Illustrator 23.0.3, SVG Export Plug-In . SVG Version: 6.00 Build 0)  -->
<svg version="1.1" id="Layer_1" xmlns="http://www.w3.org/2000/svg" xmlns:xlink="http://www.w3.org/1999/xlink" x="0px" y="0px"
	 viewBox="0 0 84.2 84.2" style="enable-background:new 0 0 84.2 84.2;" xml:space="preserve">
<style type="text/css">
	.st0{fill:none;stroke:#FFFFFF;stroke-width:2;stroke-miterlimit:10;}
	.st1{fill:#FFFFFF;}
</style>
<g>
	<g>
		<circle class="st0" cx="42.1" cy="42.1" r="41.1"/>
		<g>
			<path class="st1" d="M22.9,62.2c0,0.2-0.2,0.2-0.3,0.2c-2-0.2-3.7-1.1-4.9-2.7c-0.9-1.2-1.4-2.6-1.6-4.1c-0.1-0.8,0-1.6,0-2.4
				c0-7.7,0-15.3,0-23c0.3-2.8,1.6-4.9,4.1-6.1c1.1-0.5,2.2-0.7,3.4-0.7c1.5,0,3,0,4.5,0c0.3,0,0.4-0.1,0.5-0.4
				c0.6-1.8,1.3-3.5,2.6-4.9c1.4-1.6,3.1-2.4,5.2-2.4c4,0,8,0,11.9,0c0.5,0,0.9,0.2,1.4,0.3c2,0.8,3.4,2.3,4.4,4.2
				c0.5,0.9,0.8,1.8,1.2,2.7c0.1,0.2,0.2,0.3,0.4,0.3c1.6,0,3.2,0,4.8,0c2.3,0,4.2,1,5.6,2.8c1.1,1.4,1.6,3,1.6,4.8
				c0,8,0,16.1,0,24.1c0,3.7-2.9,6.9-6.6,7.2c-1.2,0.1-2.5,0-3.7,0c-10,0-19.9,0-29.9,0c-1.5,0-3,0-4.5,0
				C23.1,62.4,22.9,62.4,22.9,62.2z M41.9,59.1L41.9,59.1c2.2,0,4.3,0,6.5,0c4.2,0,8.4,0,12.6,0c0.4,0,0.8-0.1,1.2-0.2
				c1.4-0.5,2.4-2.2,2.4-3.8c0-8,0-16.1,0-24.1c0-0.7-0.1-1.3-0.4-1.9c-0.7-1.5-1.9-2.3-3.6-2.3c-2.1,0-4.2,0-6.3,0
				c-0.9,0-1.5-0.5-1.8-1.4c-0.3-1-0.6-1.9-1-2.8c-0.5-1.2-1.3-2.3-2.5-3c-0.4-0.3-0.8-0.4-1.3-0.4c-3.8,0-7.6,0-11.3,0
				c-0.8,0-1.6,0.3-2.2,0.8c-0.7,0.6-1.3,1.4-1.6,2.3c-0.4,1-0.8,2.1-1.1,3.1c-0.2,0.8-0.8,1.5-1.8,1.4c-1.7-0.1-3.3,0-5,0
				c-0.7,0-1.5,0-2.2,0.1c-1.8,0.3-3.2,1.9-3.2,3.6c0,3.3,0,6.7,0,10c0,4.8,0,9.5,0,14.3c0,0.9,0.2,1.7,0.6,2.4
				c0.7,1.3,1.8,2.1,3.3,2c1.5,0,3,0,4.5,0C32.5,59.1,37.2,59.1,41.9,59.1z"/>
			<path class="st1" d="M58.7,32.2c-0.7,0-1.4,0-2.1,0s-1.2-0.5-1.2-1.3s0.5-1.3,1.2-1.3c1.4,0,2.9,0,4.3,0c0.7,0,1.2,0.6,1.2,1.3
				c0,0.7-0.5,1.3-1.2,1.3C60.1,32.3,59.4,32.2,58.7,32.2z"/>
			<g>
				<path class="st1" d="M60.9,29.7c-1.4,0-2.9,0-4.3,0c-0.7,0-1.2,0.5-1.2,1.3s0.5,1.3,1.2,1.3s1.4,0,2.1,0s1.4,0,2.1,0
					S62,31.8,62,31C62,30.2,61.5,29.7,60.9,29.7z"/>
				<path class="st1" d="M42,31.8c-6-0.1-11,4.9-11.1,11s4.9,11,11,11.1c6,0.1,11-4.9,11-10.9C53.1,36.8,48.2,31.9,42,31.8z
					 M42.1,50.6c-4.4,0-7.9-3.4-7.9-7.8c0-4.3,3.5-7.7,7.8-7.8c4.2,0,7.7,3.5,7.7,7.8S46.3,50.6,42.1,50.6z"/>
			</g>
		</g>
	</g>
</g>
</svg>
